<svg xmlns="http://www.w3.org/2000/svg" width="41" height="41" viewBox="0 0 41 41">
  <g fill="none" fill-rule="evenodd" transform="translate(1 1)">
    <circle cx="19.092" cy="19.147" r="19" stroke="#9F9F9F" stroke-width="2"/>
    <g fill="#9F9F9F" transform="translate(8.092 9.147)">
      <polygon points="9.066 10.645 12.934 10.645 12.934 11.934 9.066 11.934"/>
      <path d="M17.8483,11.9335 L14.2227,11.9335 L14.2227,12.5781 C14.2227,12.9343 13.9343,13.2226 13.5781,13.2226 L8.42188,13.2226 C8.0657,13.2226 7.77734,12.9343 7.77734,12.5781 L7.77734,11.9335 L4.15169,11.9335 C3.31833,11.9335 2.58131,11.4023 2.31746,10.6118 L0,3.6582 L0,17.7343 C0,18.8005 0.867432,19.6679 1.93359,19.6679 L20.0664,19.6679 C21.1326,19.6679 22,18.8005 22,17.7343 L22,3.65871 L19.6824,10.6118 C19.4187,11.4023 18.6817,11.9335 17.8483,11.9335 Z"/>
      <path fill-rule="nonzero" d="M13.578,0.33203 L8.4218,0.33203 C7.35564,0.33203 6.4882,1.19946 6.4882,2.26562 L6.4882,2.91016 L1.10889,2.91016 L3.53981,10.2039 C3.62793,10.4676 3.87399,10.6445 4.15161,10.6445 L7.77727,10.6445 L7.77727,10 C7.77727,9.6438 8.06563,9.3555 8.4218,9.3555 L13.578,9.3555 C13.9342,9.3555 14.2226,9.6438 14.2226,10 L14.2226,10.6445 L17.8482,10.6445 C18.1259,10.6445 18.3719,10.4676 18.46,10.2039 L20.8911,2.91016 L15.5116,2.91016 L15.5116,2.26562 C15.5116,1.19946 14.6442,0.33203 13.578,0.33203 Z M7.77727,2.91016 L7.77727,2.26562 C7.77727,1.90996 8.06613,1.62109 8.4218,1.62109 L13.578,1.62109 C13.9337,1.62109 14.2226,1.90996 14.2226,2.26562 L14.2226,2.91016 L7.77727,2.91016 Z"/>
    </g>
  </g>
</svg>
