<svg xmlns="http://www.w3.org/2000/svg" width="24" height="25" viewBox="0 0 24 25">
  <g fill="#9F9F9F">
    <path d="M22.7715,9.48159 L21.087,9.19582 C20.9115,8.62929 20.6859,8.08281 20.4102,7.5614 L21.4028,6.17265 C21.824,5.58105 21.7588,4.77387 21.2424,4.26249 L19.7484,2.76845 C19.4676,2.4877 19.0966,2.33228 18.7005,2.33228 C18.3897,2.33228 18.0939,2.42753 17.8432,2.60802 L16.4494,3.6007 C15.908,3.31493 15.3415,3.07929 14.7549,2.90382 L14.4741,1.23932 C14.3538,0.522385 13.7371,0.000976562 13.0102,0.000976562 L10.8995,0.000976562 C10.1725,0.000976562 9.55582,0.522385 9.4355,1.23932 L9.14471,2.94393 C8.58319,3.1194 8.03672,3.35003 7.51531,3.63078 L6.13658,2.6381 C5.8859,2.45761 5.58509,2.36236 5.27425,2.36236 C4.87818,2.36236 4.50217,2.51778 4.22642,2.79854 L2.72737,4.29257 C2.21599,4.80395 2.1458,5.61114 2.56694,6.20273 L3.56965,7.61154 C3.2939,8.13796 3.0733,8.68444 2.90284,9.25097 L1.23835,9.53173 C0.521409,9.65205 0,10.2687 0,10.9957 L0,13.1064 C0,13.8334 0.521409,14.45 1.23835,14.5703 L2.94295,14.8611 C3.11843,15.4226 3.34905,15.9691 3.62981,16.4905 L2.64214,17.8642 C2.221,18.4558 2.28618,19.263 2.80257,19.7744 L4.29661,21.2684 C4.57737,21.5492 4.94837,21.7046 5.34444,21.7046 C5.65528,21.7046 5.95108,21.6094 6.20176,21.4289 L7.61056,20.4262 C8.11693,20.6919 8.64837,20.9075 9.19485,21.0779 L9.4756,22.7625 C9.59593,23.4794 10.2126,24.0008 10.9396,24.0008 L13.0553,24.0008 C13.7822,24.0008 14.3989,23.4794 14.5192,22.7625 L14.805,21.0779 C15.3715,20.9025 15.918,20.6768 16.4394,20.4011 L17.8282,21.3938 C18.0789,21.5743 18.3797,21.6695 18.6905,21.6695 C19.0866,21.6695 19.4576,21.5141 19.7383,21.2333 L21.2324,19.7393 C21.7438,19.2279 21.8139,18.4207 21.3928,17.8291 L20.4001,16.4354 C20.6759,15.909 20.9065,15.3625 21.077,14.801 L22.7615,14.5202 C23.4784,14.3999 23.9999,13.7832 23.9999,13.0563 L23.9999,10.9455 C24.0099,10.2186 23.4885,9.60192 22.7715,9.48159 Z M22.6562,13.0563 C22.6562,13.1214 22.6111,13.1766 22.5459,13.1866 L20.4402,13.5376 C20.1745,13.5827 19.9639,13.7782 19.8988,14.0339 C19.7083,14.7709 19.4175,15.4778 19.0264,16.1346 C18.891,16.3652 18.9011,16.651 19.0565,16.8716 L20.2948,18.6163 C20.3299,18.6664 20.3249,18.7416 20.2798,18.7867 L18.7858,20.2808 C18.7507,20.3159 18.7156,20.3209 18.6905,20.3209 C18.6604,20.3209 18.6354,20.3109 18.6153,20.2958 L16.8756,19.0575 C16.66,18.902 16.3692,18.892 16.1386,19.0274 C15.4818,19.4184 14.7749,19.7092 14.0379,19.8997 C13.7772,19.9649 13.5817,20.1805 13.5416,20.4412 L13.1856,22.5469 C13.1756,22.6121 13.1205,22.6572 13.0553,22.6572 L10.9446,22.6572 C10.8794,22.6572 10.8242,22.6121 10.8142,22.5469 L10.4633,20.4412 C10.4182,20.1755 10.2226,19.9649 9.96693,19.8997 C9.24999,19.7142 8.55813,19.4285 7.91138,19.0575 C7.80609,18.9973 7.68577,18.9672 7.57046,18.9672 C7.43509,18.9672 7.29471,19.0073 7.1794,19.0926 L5.42466,20.3409 C5.39959,20.356 5.37452,20.366 5.34945,20.366 C5.3294,20.366 5.28929,20.361 5.2542,20.3259 L3.76016,18.8319 C3.71504,18.7867 3.71002,18.7165 3.74512,18.6614 L4.97845,16.9317 C5.13387,16.7111 5.1439,16.4203 5.00853,16.1897 C4.61748,15.538 4.31666,14.831 4.12615,14.0941 C4.05596,13.8384 3.84539,13.6428 3.58469,13.5977 L1.46396,13.2367 C1.39878,13.2267 1.35366,13.1716 1.35366,13.1064 L1.35366,10.9957 C1.35366,10.9305 1.39878,10.8754 1.46396,10.8653 L3.55461,10.5144 C3.82032,10.4693 4.03591,10.2737 4.10108,10.013 C4.28658,9.27604 4.57236,8.56411 4.9584,7.90734 C5.09376,7.67672 5.07872,7.39094 4.9233,7.17536 L3.67493,5.42062 C3.63984,5.37048 3.64485,5.29528 3.68997,5.25016 L5.18401,3.75612 C5.2191,3.72103 5.2542,3.71601 5.27927,3.71601 C5.30935,3.71601 5.33441,3.72604 5.35447,3.74108 L7.08414,4.97441 C7.30474,5.12983 7.59552,5.13986 7.82615,5.0045 C8.47791,4.61344 9.18482,4.31263 9.92181,4.12211 C10.1775,4.05192 10.373,3.84135 10.4182,3.58065 L10.7791,1.45992 C10.7892,1.39474 10.8443,1.34962 10.9095,1.34962 L13.0202,1.34962 C13.0854,1.34962 13.1405,1.39474 13.1505,1.45992 L13.5015,3.55057 C13.5466,3.81629 13.7421,4.03187 14.0028,4.09704 C14.7599,4.28756 15.4818,4.58336 16.1537,4.97943 C16.3843,5.11479 16.67,5.10477 16.8906,4.94935 L18.6203,3.70599 C18.6454,3.69095 18.6704,3.68092 18.6955,3.68092 C18.7156,3.68092 18.7557,3.68593 18.7908,3.72103 L20.2848,5.21507 C20.3299,5.26019 20.3349,5.33038 20.2999,5.38553 L19.0615,7.12523 C18.9061,7.34081 18.8961,7.63159 19.0314,7.86222 C19.4225,8.51899 19.7133,9.2259 19.9038,9.96289 C19.969,10.2236 20.1845,10.4191 20.4452,10.4592 L22.5509,10.8152 C22.6161,10.8252 22.6612,10.8804 22.6612,10.9455 L22.6612,13.0563 L22.6562,13.0563 Z" transform="translate(0 .456)"/>
    <path d="M6.00236,0.818481 C3.14464,0.818481 0.823364,3.13975 0.823364,5.99748 C0.823364,8.8552 3.14464,11.1765 6.00236,11.1765 C8.86008,11.1765 11.1814,8.8552 11.1814,5.99748 C11.1814,3.13975 8.86008,0.818481 6.00236,0.818481 Z M6.00236,9.82281 C3.89165,9.82281 2.17702,8.10818 2.17702,5.99748 C2.17702,3.88677 3.89165,2.17214 6.00236,2.17214 C8.11306,2.17214 9.82769,3.88677 9.82769,5.99748 C9.82769,8.10818 8.11306,9.82281 6.00236,9.82281 Z" transform="translate(6 6.5)"/>
  </g>
</svg>
