<svg xmlns="http://www.w3.org/2000/svg" width="40" height="41" viewBox="0 0 40 41">
  <g fill="none" fill-rule="evenodd" transform="translate(1 1)">
    <circle cx="19" cy="19.795" r="19" stroke="#9F9F9F" stroke-width="2"/>
    <path fill="#9F9F9F" fill-rule="nonzero" d="M12.8672,6.44531 C11.801,6.44531 10.9336,5.57788 10.9336,4.51172 L10.9336,0 L1.26562,0 C0.909622,0 0.621094,0.288528 0.621094,0.644531 L0.621094,21.3555 C0.621094,21.7115 0.909622,22 1.26562,22 L16.7344,22 C17.0904,22 17.3789,21.7115 17.3789,21.3555 L17.3789,6.44531 L12.8672,6.44531 Z M8.14062,18.5195 L3.84375,18.5195 C3.48775,18.5195 3.19922,18.231 3.19922,17.875 C3.19922,17.519 3.48775,17.2305 3.84375,17.2305 L8.14062,17.2305 C8.49663,17.2305 8.78515,17.519 8.78515,17.875 C8.78515,18.231 8.49663,18.5195 8.14062,18.5195 Z M8.14062,15.9557 L3.84375,15.9557 C3.48775,15.9557 3.19922,15.6671 3.19922,15.3111 C3.19922,14.9551 3.48775,14.6666 3.84375,14.6666 L8.14062,14.6666 C8.49663,14.6666 8.78515,14.9551 8.78515,15.3111 C8.78515,15.6671 8.49663,15.9557 8.14062,15.9557 Z M8.14062,13.3918 L3.84375,13.3918 C3.48775,13.3918 3.19922,13.1033 3.19922,12.7473 C3.19922,12.3913 3.48775,12.1028 3.84375,12.1028 L8.14062,12.1028 C8.49663,12.1028 8.78515,12.3913 8.78515,12.7473 C8.78515,13.1033 8.49663,13.3918 8.14062,13.3918 Z M8.14062,10.7852 L3.84375,10.7852 C3.48775,10.7852 3.19922,10.4966 3.19922,10.1406 C3.19922,9.78462 3.48775,9.49609 3.84375,9.49609 L8.14062,9.49609 C8.49663,9.49609 8.78515,9.78462 8.78515,10.1406 C8.78515,10.4966 8.49663,10.7852 8.14062,10.7852 Z M14.1562,18.5195 L11.5781,18.5195 C11.2221,18.5195 10.9336,18.231 10.9336,17.875 C10.9336,17.519 11.2221,17.2305 11.5781,17.2305 L14.1562,17.2305 C14.5122,17.2305 14.8008,17.519 14.8008,17.875 C14.8008,18.231 14.5122,18.5195 14.1562,18.5195 Z M14.1562,15.9414 L11.5781,15.9414 C11.2221,15.9414 10.9336,15.6529 10.9336,15.2969 C10.9336,14.9409 11.2221,14.6523 11.5781,14.6523 L14.1562,14.6523 C14.5122,14.6523 14.8008,14.9409 14.8008,15.2969 C14.8008,15.6529 14.5122,15.9414 14.1562,15.9414 Z M14.1562,13.3633 L11.5781,13.3633 C11.2221,13.3633 10.9336,13.0748 10.9336,12.7188 C10.9336,12.3627 11.2221,12.0742 11.5781,12.0742 L14.1562,12.0742 C14.5122,12.0742 14.8008,12.3627 14.8008,12.7188 C14.8008,13.0748 14.5122,13.3633 14.1562,13.3633 Z" transform="translate(10 8.795)"/>
  </g>
</svg>
