<svg xmlns="http://www.w3.org/2000/svg" width="41" height="41" viewBox="0 0 41 41">
  <g fill="none" fill-rule="evenodd" transform="translate(1 1)">
    <path fill="#9F9F9F" d="M19.7374274,18.911428 C17.2912574,18.911428 15.3081874,16.502908 15.3081874,13.531778 C15.3081874,10.560588 15.9593874,8.15202804 19.7374274,8.15202804 C23.5154274,8.15202804 24.1665274,10.560588 24.1665274,13.531778 C24.1665274,16.502908 22.1834274,18.911428 19.7374274,18.911428 Z M11.3717974,27.125628 C11.3710474,26.944428 11.3702874,27.074628 11.3717974,27.125628 Z M28.1028274,27.267128 C28.1052274,27.217528 28.1036274,26.923028 28.1028274,27.267128 Z M28.0933274,26.908428 C28.0986274,27.239528 28.1013274,27.296728 28.1027274,27.267228 C28.1025274,27.354928 28.1024274,27.483928 28.1024274,27.669428 C28.1024274,27.669428 26.8708274,30.152028 19.7374274,30.152028 C12.6038474,30.152028 11.3723474,27.669428 11.3723474,27.669428 C11.3723474,27.380728 11.3719774,27.215128 11.3716574,27.125628 C11.3730474,27.173428 11.3766274,27.151828 11.3843574,26.740328 C11.4786474,21.700628 12.1957174,20.247628 17.3119774,19.324228 C17.3119774,19.324228 18.0402374,20.252128 19.7374274,20.252128 C21.4345274,20.252128 22.1626274,19.324228 22.1626274,19.324228 C27.3353274,20.257828 28.0113274,21.732628 28.0933274,26.908428 Z"/>
    <circle cx="19.738" cy="19.152" r="19" stroke="#9F9F9F" stroke-width="2"/>
  </g>
</svg>
