<svg xmlns="http://www.w3.org/2000/svg" width="41" height="41" viewBox="0 0 41 41">
  <g fill="none" fill-rule="evenodd" transform="translate(1 1)">
    <circle cx="19.406" cy="19.028" r="19" stroke="#9F9F9F" stroke-width="2"/>
    <path fill="#9F9F9F" fill-rule="nonzero" d="M9.9996,0 C4.72206,0 0.427979,4.29409 0.427979,9.57215 C0.427979,10.9489 0.709763,12.2633 1.26508,13.4794 C3.65826,18.7162 8.24663,24.2452 9.59622,25.8148 C9.69733,25.9321 9.84474,25.9997 9.99987,25.9997 C10.155,25.9997 10.3024,25.9321 10.4035,25.8148 C11.7526,24.2454 16.3409,18.7167 18.7349,13.4794 C19.2905,12.2633 19.572,10.9489 19.572,9.57215 C19.5715,4.29409 15.2774,0 9.9996,0 Z M9.9996,14.544 C7.25812,14.544 5.02753,12.3134 5.02753,9.57189 C5.02753,6.83015 7.25812,4.59955 9.9996,4.59955 C12.7411,4.59955 14.9717,6.83015 14.9717,9.57189 C14.9719,12.3134 12.7413,14.544 9.9996,14.544 Z" transform="translate(9.406 6.028)"/>
  </g>
</svg>
