<svg xmlns="http://www.w3.org/2000/svg" width="25" height="25" viewBox="0 0 25 25">
  <g fill="#9F9F9F" fill-rule="evenodd" transform="translate(.704 .421)">
    <path fill-rule="nonzero" d="M11.9997,0 C5.38296,0 0,5.3832 0,12 C0,18.6167 5.38296,24 11.9997,24 C18.6166,24 24,18.6167 24,12 C24,5.3832 18.6166,0 11.9997,0 Z M11.9997,22.4262 C6.25092,22.4262 1.5738,17.749 1.5738,12 C1.5738,6.25098 6.25086,1.5738 11.9997,1.5738 C17.7487,1.5738 22.426,6.25098 22.426,12 C22.4261,17.749 17.7487,22.4262 11.9997,22.4262 Z"/>
    <path d="M16.7687,11.213 L12.7869,11.213 L12.7869,7.23111 C12.7869,6.79653 12.4346,6.44421 12,6.44421 C11.5655,6.44421 11.2131,6.79659 11.2131,7.23111 L11.2131,11.2132 L7.23148,11.2132 C6.79696,11.2132 6.44458,11.5656 6.44458,12.0001 C6.44458,12.4347 6.79696,12.787 7.23148,12.787 L11.213,12.787 L11.213,16.7687 C11.213,17.2032 11.5653,17.5555 11.9999,17.5555 C12.4344,17.5555 12.7868,17.2032 12.7868,16.7687 L12.7868,12.7868 L16.7688,12.7868 C17.2032,12.7868 17.5556,12.4344 17.5556,11.9999 C17.5556,11.5653 17.2032,11.213 16.7687,11.213 Z"/>
  </g>
</svg>
