<svg xmlns="http://www.w3.org/2000/svg" width="41" height="40" viewBox="0 0 41 40">
  <g fill="none" fill-rule="evenodd" transform="translate(1 1)">
    <circle cx="19.5" cy="19" r="19" stroke="#9F9F9F" stroke-width="2"/>
    <path fill="#9F9F9F" d="M21.7447,29.1088 L30.2678,9.86769 C30.4698,9.41165 30.3702,8.87824 30.0166,8.525673 C29.6633,8.172792 29.1289,8.0734068 28.6716,8.275008 L9.392747,16.78158 C8.931078,16.98507 8.644622,17.45338 8.673929,17.95628 C8.703237,18.4592 9.042319,18.891 9.52447,19.0398 L17.1302,21.3867 L19.4817,28.9771 C19.6308,29.4586 20.0634,29.7967 20.5673,29.8262 C20.591,29.8275 20.6146,29.8281 20.6383,29.8281 C21.1147,29.8281 21.5499,29.5479 21.7447,29.1088 Z M19.2539,20.0641 C19.1357,19.6833 18.8369,19.3851 18.45501,19.2672 L13.32906,17.68549 L26.7893,11.74627 L20.8387,25.18 L19.2539,20.0641 Z"/>
  </g>
</svg>
