<svg width="14" height="14" viewBox="0 0 14 14" fill="none" xmlns="http://www.w3.org/2000/svg">
<path d="M6.99976 9.59448C6.60836 9.59448 6.28027 9.92257 6.28027 10.314C6.28027 10.7054 6.60836 11.0334 6.99976 11.0334C7.37677 11.0334 7.71924 10.7054 7.70197 10.3312C7.71924 9.91969 7.39403 9.59448 6.99976 9.59448Z" fill="#FF4A22"/>
<path d="M13.6593 12.1443C14.1112 11.3644 14.114 10.4348 13.6651 9.65776L9.15827 1.85285C8.71219 1.06717 7.90637 0.600952 7.0027 0.600952C6.09904 0.600952 5.29322 1.07005 4.84715 1.84997L0.334572 9.66351C-0.114383 10.4492 -0.111506 11.3845 0.343205 12.1644C0.79216 12.9357 1.5951 13.399 2.49301 13.399H11.4951C12.3959 13.399 13.2046 12.9299 13.6593 12.1443ZM12.6808 11.5802C12.4305 12.0119 11.9873 12.268 11.4923 12.268H2.49013C2.00089 12.268 1.56056 12.0176 1.31594 11.5946C1.06844 11.1658 1.06556 10.6535 1.31306 10.2218L5.82564 2.41116C6.07026 1.98235 6.5077 1.7291 7.0027 1.7291C7.49483 1.7291 7.93515 1.98523 8.17977 2.41404L12.6895 10.2247C12.9312 10.6449 12.9283 11.1514 12.6808 11.5802Z" fill="#FF4A22"/>
<path d="M6.82155 4.54363C6.47908 4.64148 6.26611 4.95229 6.26611 5.3293C6.28338 5.55665 6.29777 5.78689 6.31504 6.01424C6.36396 6.8805 6.41289 7.72948 6.46181 8.59574C6.47908 8.88928 6.70643 9.10225 6.99998 9.10225C7.29352 9.10225 7.52376 8.87489 7.53815 8.57847C7.53815 8.40004 7.53815 8.23599 7.55541 8.05469C7.58707 7.49925 7.6216 6.94381 7.65326 6.38837C7.67053 6.02863 7.70219 5.66889 7.71945 5.30915C7.71945 5.17965 7.70219 5.06453 7.65326 4.94941C7.50649 4.62709 7.16402 4.46305 6.82155 4.54363Z" fill="#FF4A22"/>
</svg>
